/* XPM */
static char * bottom_right_active_xpm[] = {
"11 15 3 1",
" 	c None",
".	c #3C3B37 s active_border_color",
"+	c #F07746 s active_color_1",
"       ....",
"       ....",
"       ....",
"       ....",
"       ....",
"       ....",
"...........",
"...........",
"...........",
"...........",
"+..........",
"+......... ",
"+......... ",
"+........  ",
"+......    "};
