/* XPM */
static char * bottom_active_xpm[] = {
"9 9 3 1",
" 	c None",
".	c #404040 s active_shadow_2",
"+	c #909090 s active_color_1",
".........",
".........",
".........",
".........",
"+++++++++",
"+++++++++",
"+++++++++",
"+++++++++",
"+++++++++"};
