/* XPM */
static char * bottom_left_inactive_xpm[] = {
"11 15 3 1",
" 	c None",
".	c #404040 s inactive_color_1",
"+	c #909090 s active_hilight_1",
"....       ",
"....       ",
"....       ",
"....       ",
"....       ",
"....       ",
"...........",
"...........",
"...........",
"...........",
"..........+",
" .........+",
" .........+",
"  ........+",
"    ......+"};
