/* XPM */
static char * shade_toggled_pressed_xpm[] = {
"21 21 5 1",
" 	c None",
".	c #3C3B37 s active_border_color",
"+	c #F07746 s active_color_1",
"@	c #000000 s active_shadow_1",
"#	c #FFFFFF s active_text_color",
".....................",
".....................",
".........+++.........",
"......+++++++++......",
".....+++++++++++.....",
"....+++++++++++++....",
"...+++++++++++++++...",
"...+++++@@@@@@@+++...",
"...++++@#######@++...",
"..+++++@#######@+++..",
"..++++++@@@@@@@++++..",
"..+++++@#######@+++..",
"...+++++@#####@+++...",
"...++++++@###@++++...",
"...+++++++@#@+++++...",
"....+++++++@+++++....",
".....+++++++++++.....",
"......+++++++++......",
".........+++.........",
".....................",
"....................."};
