/* XPM */
static char * stick_pressed_xpm[] = {
"21 21 5 1",
" 	c None",
".	c #404040 s active_shadow_2",
"+	c #909090 s active_color_1",
"@	c #000000",
"#	c #FFFFFF s active_text_color",
".....................",
".....................",
".........+++.........",
"......+++++++++......",
".....+++++++++++.....",
"....+++++++++++++....",
"...+++++++++++++++...",
"...+++++++++++++++...",
"...+++++++++++++++...",
"..++++++++@@@++++++..",
"..+++++++@###@+++++..",
"..+++++++@#@#@+++++..",
"...++++++@###@++++...",
"...+++++++@@@+++++...",
"...+++++++++++++++...",
"....+++++++++++++....",
".....+++++++++++.....",
"......+++++++++......",
".........+++.........",
".....................",
"....................."};
