/* XPM */
static char * top_left_active_xpm[] = {
"5 26 2 1",
" 	c None",
".	c #3C3B37 s active_border_color",
"    .",
"  ...",
" ....",
" ....",
".....",
".....",
".....",
".....",
".....",
".....",
".....",
".....",
".....",
".....",
".....",
".....",
".....",
".....",
".....",
".....",
".....",
".....",
".....",
".....",
".....",
"....."};
